Coordinates
version=1
nRows=43
nColumns=12
inDegrees=yes

Units are S.I. units (second, meters, Newtons, ...)
Angles are in degrees

endheader
time	SC_y	SC_z	SC_x	AC_y	AC_z	AC_x	GH_y	GH_z	GH_yy	EL_x	PS_y
       0.0              -28.21          23.24          71.72          62.37         -2.639           1.02           24.0         -16.84          7.868          28.55          88.14
   0.01933              -28.21          23.24          71.72          62.38          -2.64          1.022           24.0         -16.83          7.886          28.56          88.15
   0.03866              -28.21          23.24          71.72          62.38         -2.642          1.025           24.0         -16.81          7.905          28.57          88.15
   0.05799              -28.21          23.23          71.72          62.38         -2.644          1.028           24.0          -16.8          7.926          28.58          88.15
   0.07732              -28.21          23.23          71.72          62.38         -2.646          1.031          23.99         -16.78          7.947          28.59          88.16
   0.09666              -28.21          23.23          71.72          62.38         -2.648          1.035          23.99         -16.77           7.97           28.6          88.16
     0.116              -28.21          23.23          71.72          62.38          -2.65          1.038          23.99         -16.75          7.995          28.61          88.17
    0.1353               -28.2          23.23          71.72          62.38         -2.652          1.042          23.99         -16.73          8.021          28.62          88.17
    0.1546               -28.2          23.23          71.72          62.38         -2.655          1.046          23.99         -16.71          8.049          28.63          88.18
     0.174               -28.2          23.23          71.72          62.38         -2.658          1.051          23.99         -16.69          8.079          28.65          88.18
    0.1933               -28.2          23.22          71.72          62.38         -2.661          1.055          23.99         -16.67          8.112          28.66          88.19
    0.2126              -28.19          23.22          71.72          62.38         -2.664           1.06          23.99         -16.64          8.147          28.68          88.19
     0.232              -28.19          23.22          71.72          62.38         -2.667          1.066          23.99         -16.61          8.184           28.7           88.2
    0.2513              -28.19          23.22          71.72          62.38         -2.671          1.072          23.99         -16.58          8.225          28.72          88.21
    0.2706              -28.18          23.22          71.73          62.39         -2.675          1.078          23.98         -16.55          8.269          28.74          88.22
      0.29              -28.18          23.21          71.73          62.39         -2.679          1.085          23.98         -16.52          8.317          28.76          88.23
    0.3093              -28.18          23.21          71.73          62.39         -2.684          1.093          23.98         -16.48          8.368          28.78          88.24
    0.3286              -28.17          23.21          71.73          62.39         -2.689          1.101          23.98         -16.44          8.425          28.81          88.25
     0.348              -28.17           23.2          71.73          62.39         -2.695           1.11          23.98          -16.4          8.486          28.84          88.26
    0.3673              -28.16           23.2          71.73          62.39         -2.701           1.12          23.97         -16.35          8.554          28.87          88.27
    0.3866              -28.16           23.2          71.73           62.4         -2.708          1.131          23.97          -16.3          8.628          28.91          88.28
     0.406              -28.15          23.19          71.73           62.4         -2.715          1.143          23.97         -16.24           8.71          28.94           88.3
    0.4253              -28.14          23.19          71.73           62.4         -2.723          1.156          23.97         -16.17            8.8          28.99          88.31
    0.4446              -28.14          23.18          71.73           62.4         -2.732          1.171          23.96          -16.1            8.9          29.03          88.33
    0.4639              -28.13          23.17          71.74          62.41         -2.742          1.187          23.96         -16.02           9.01          29.08          88.35
    0.4833              -28.12          23.17          71.74          62.41         -2.754          1.205          23.95         -15.93          9.134          29.14          88.38
    0.5026              -28.11          23.16          71.74          62.41         -2.766          1.226          23.95         -15.83          9.273          29.21           88.4
    0.5219               -28.1          23.15          71.74          62.42          -2.78          1.249          23.95         -15.72          9.429          29.28          88.43
    0.5413              -28.08          23.14          71.75          62.42         -2.796          1.274          23.94          -15.6          9.605          29.36          88.46
    0.5606              -28.07          23.13          71.75          62.43         -2.814          1.304          23.93         -15.45          9.805          29.46           88.5
    0.5799              -28.05          23.12          71.75          62.44         -2.835          1.337          23.92         -15.29          10.03          29.56          88.54
    0.5993              -28.03           23.1          71.76          62.44         -2.859          1.376          23.92          -15.1           10.3          29.69          88.59
    0.6186              -28.01          23.09          71.76          62.45         -2.886           1.42          23.91         -14.88           10.6          29.83          88.64
    0.6379              -27.98          23.07          71.77          62.46         -2.918          1.472          23.89         -14.63          10.95          29.99          88.71
    0.6573              -27.95          23.05          71.77          62.47         -2.956          1.532          23.88         -14.34          11.36          30.19          88.78
    0.6766              -27.91          23.02          71.78          62.49           -3.0          1.603          23.86         -13.99          11.85          30.42          88.87
    0.6959              -27.87          22.99          71.79           62.5         -3.052          1.688          23.85         -13.58          12.42          30.69          88.98
    0.7153              -27.81          22.95           71.8          62.52         -3.115          1.789          23.82         -13.08          13.12          31.01           89.1
    0.7346              -27.75           22.9          71.81          62.55         -3.191          1.912          23.79         -12.48          13.95           31.4          89.26
    0.7539              -27.67          22.85          71.83          62.57         -3.284          2.062          23.76         -11.75          14.97          31.88          89.44
    0.7732              -27.57          22.78          71.84          62.61         -3.398          2.247          23.72         -10.85          16.23          32.47          89.67
    0.7926              -27.45          22.69          71.87          62.65         -3.541          2.478          23.67         -9.724          17.81          33.21          89.96
    0.8119               -27.3          22.59           71.9          62.71          -3.72          2.768           23.6         -8.306          19.79          34.14          90.32
